<?xml version="1.0" standalone="no"?>
<!DOCTYPE svg PUBLIC "-//W3C//DTD SVG 20010904//EN"
 "http://www.w3.org/TR/2001/REC-SVG-20010904/DTD/svg10.dtd">
<svg version="1.0" xmlns="http://www.w3.org/2000/svg"
 width="640.000000pt" height="1280.000000pt" viewBox="0 0 640.000000 1280.000000"
 preserveAspectRatio="xMidYMid meet">
<metadata>
Created by potrace 1.15, written by Peter Selinger 2001-2017
</metadata>
<g transform="translate(0.000000,1280.000000) scale(0.100000,-0.100000)"
fill="#000000" stroke="none">
<path d="M4285 12718 c-107 -113 -155 -179 -155 -212 0 -28 19 -64 53 -103 18
-21 19 -27 8 -61 -13 -37 -11 -44 37 -158 64 -152 160 -354 201 -422 17 -29
29 -57 26 -62 -3 -5 2 -15 10 -23 8 -9 15 -20 15 -26 0 -6 9 -15 20 -21 11 -6
20 -20 20 -31 0 -11 7 -22 15 -25 27 -11 335 -494 488 -765 106 -188 259 -504
261 -538 1 -15 9 -35 19 -45 11 -12 15 -26 11 -42 -4 -17 -1 -26 10 -30 9 -3
16 -15 16 -25 0 -11 6 -30 14 -42 21 -32 73 -254 92 -387 19 -135 32 -722 17
-743 -5 -6 -8 -35 -7 -64 1 -33 -2 -56 -11 -63 -15 -12 -10 -121 7 -156 14
-30 7 -79 -12 -77 -16 2 -182 36 -1170 243 -1491 312 -1383 288 -1404 316 -11
15 -37 39 -59 55 l-39 28 64 -6 c63 -5 65 -5 91 27 15 17 27 40 27 51 0 23 15
56 39 83 18 20 22 46 21 124 -1 64 9 78 61 87 22 4 43 14 46 22 3 9 -16 59
-42 113 -35 71 -47 107 -45 131 10 102 4 144 -33 217 -20 40 -46 87 -58 103
-11 16 -18 36 -15 44 3 8 90 153 194 322 104 169 344 571 532 893 378 646 357
609 343 595 -6 -5 -252 -415 -548 -909 l-537 -899 -19 24 c-10 13 -19 34 -19
47 0 68 -92 162 -208 213 -37 16 -109 51 -160 77 -92 46 -95 47 -180 45 -48
-1 -112 -7 -142 -12 -47 -8 -56 -7 -65 7 -25 40 -56 61 -108 72 -50 12 -59 11
-83 -4 -18 -13 -36 -16 -60 -11 -23 4 -41 1 -56 -10 -13 -9 -44 -15 -75 -15
-49 0 -54 -2 -88 -43 l-36 -43 -60 15 -60 16 -65 -35 c-75 -40 -126 -93 -142
-149 -17 -53 -15 -68 12 -149 23 -68 43 -157 38 -175 -6 -23 22 -88 47 -110
22 -18 27 -27 19 -41 -5 -10 -7 -29 -3 -44 4 -15 7 -59 8 -99 2 -69 4 -74 40
-110 20 -22 37 -45 37 -52 0 -7 15 -27 34 -44 27 -26 34 -41 38 -84 5 -51 5
-51 -27 -57 -49 -10 -153 -5 -207 9 -27 8 -65 28 -85 45 -33 29 -40 31 -82 25
-60 -9 -63 -12 -56 -44 6 -27 4 -28 -58 -39 -35 -7 -84 -12 -109 -12 -61 0
-169 37 -193 67 -15 18 -33 25 -79 30 l-58 6 3 -54 4 -54 -116 -3 c-110 -2
-117 -1 -154 24 -33 22 -46 25 -84 20 -24 -3 -47 -8 -49 -11 -3 -3 2 -42 12
-88 12 -55 27 -96 48 -125 16 -24 29 -45 27 -46 -2 -2 -28 -15 -56 -30 -75
-37 -83 -54 -71 -146 12 -88 31 -129 91 -196 41 -46 55 -53 181 -98 75 -27
136 -54 136 -60 0 -42 24 -263 41 -371 34 -229 99 -494 131 -532 6 -7 31 -13
57 -13 72 0 313 29 325 39 6 5 49 19 96 32 47 12 132 40 190 61 58 22 125 46
150 53 46 14 288 65 309 65 17 0 13 -18 -10 -50 -25 -33 -25 -36 25 -220 20
-74 36 -157 36 -183 0 -57 14 -87 39 -87 14 0 28 -30 65 -142 45 -133 48 -145
41 -210 -6 -65 -5 -70 15 -75 23 -6 23 -12 -12 -168 -25 -109 -44 -148 -97
-200 -29 -27 -41 -47 -39 -65 1 -14 -11 -49 -25 -77 -26 -51 -29 -53 -69 -53
-87 0 -171 -21 -198 -50 -64 -69 -122 -200 -88 -200 8 0 9 -29 5 -106 -9 -142
7 -174 85 -174 24 0 29 -4 26 -17 -3 -10 -56 -152 -118 -317 -89 -237 -111
-305 -106 -330 4 -17 34 -90 67 -163 l61 -131 -26 -199 c-63 -492 -85 -758
-96 -1153 -6 -192 -15 -348 -24 -399 -8 -46 -18 -120 -22 -163 -4 -43 -10 -78
-14 -78 -4 0 -15 9 -25 20 -10 11 -21 20 -25 20 -16 0 -90 -108 -90 -131 0
-13 12 -42 27 -63 23 -35 25 -43 14 -70 -6 -17 -33 -92 -58 -166 -58 -167 -61
-213 -39 -550 8 -135 18 -315 22 -400 l7 -156 -57 -139 c-31 -76 -56 -146 -56
-154 0 -9 12 -27 25 -40 34 -32 32 -67 -10 -164 -42 -96 -43 -113 -10 -139 14
-11 25 -24 25 -29 0 -34 -84 -226 -119 -271 l-40 -53 29 -8 30 -7 -20 -48
c-10 -26 -30 -74 -44 -107 -21 -49 -26 -77 -26 -148 0 -81 2 -90 25 -111 52
-48 252 -90 436 -91 119 0 127 1 165 26 26 17 51 47 69 82 28 53 29 58 17 104
-7 26 -41 107 -77 180 -35 73 -59 133 -53 135 6 2 4 25 -5 63 -31 120 -31 147
-3 203 14 28 26 58 26 67 0 8 -16 33 -37 55 l-36 41 26 27 c32 34 33 51 7 120
-34 88 -34 83 81 477 32 110 71 232 85 270 70 186 95 260 114 333 25 101 60
305 60 357 0 63 9 82 40 88 37 8 60 66 60 151 l0 63 86 17 c111 22 130 31 149
72 9 19 25 36 38 39 12 2 53 12 91 20 38 8 71 14 73 11 2 -2 7 -112 10 -244 6
-233 7 -241 27 -246 46 -12 311 46 385 84 20 10 55 32 79 49 35 26 42 37 42
64 0 25 6 36 29 50 25 15 30 15 41 2 7 -8 18 -15 25 -15 16 0 96 42 173 92 34
22 64 39 67 37 2 -2 -1 -72 -7 -154 -16 -241 -10 -300 45 -433 51 -123 218
-462 299 -604 49 -88 50 -92 45 -151 -7 -73 1 -91 52 -116 61 -32 65 -40 41
-110 -28 -83 -26 -109 11 -147 l31 -32 -13 -53 c-13 -51 -13 -53 11 -71 l26
-19 -15 -114 c-13 -105 -13 -118 2 -150 21 -44 85 -86 139 -92 24 -3 120 7
215 21 206 31 269 32 433 6 137 -22 261 -26 291 -10 15 9 19 22 19 69 0 109
-25 141 -123 155 -64 10 -143 38 -248 87 -73 35 -88 46 -93 69 -4 21 -20 37
-63 63 -32 20 -91 59 -131 87 -68 48 -72 53 -55 65 17 13 17 16 2 42 -10 18
-23 28 -37 27 -23 -1 -22 -3 -71 168 -18 65 -18 66 0 71 12 3 19 14 19 30 0
30 -25 58 -45 51 -10 -4 -17 7 -25 38 -6 23 -15 59 -21 78 -12 47 -12 47 11
53 13 3 20 14 20 30 0 31 -25 58 -45 51 -18 -7 -20 -2 -44 111 l-18 90 21 5
c40 11 28 94 -12 88 -13 -2 -19 13 -28 67 -17 96 -17 132 1 139 24 9 20 67 -5
73 -22 6 -26 18 -35 113 -3 36 -9 82 -12 103 -4 30 -2 37 11 37 17 0 32 41 22
65 -3 8 -14 15 -24 15 -15 0 -21 9 -26 37 -8 54 -7 65 5 57 20 -12 29 19 29
99 0 93 -17 140 -59 162 -37 19 -39 38 -10 120 30 83 23 219 -16 320 -30 77
-37 123 -60 395 -16 191 -24 273 -50 494 l-15 130 68 90 c106 141 200 250 222
258 11 4 20 14 20 22 0 7 9 16 20 19 11 3 20 12 20 21 0 20 64 89 299 320 194
192 479 492 587 620 l59 69 5 -71 c5 -78 15 -95 51 -90 21 3 25 10 31 63 18
145 60 265 93 265 9 0 15 9 15 24 0 13 7 26 15 30 8 3 15 14 15 25 0 11 9 25
20 31 11 6 20 18 20 28 0 9 23 51 51 92 139 207 238 487 319 905 17 88 36 170
42 182 6 11 7 26 3 32 -4 7 -1 18 5 26 6 8 9 19 5 25 -3 5 1 13 9 16 9 3 16
15 16 26 0 26 16 55 57 103 32 38 33 40 15 57 -10 11 -34 19 -55 20 -38 1 -41
6 -30 46 4 17 11 22 24 19 29 -8 61 21 57 51 -2 18 4 33 20 45 15 13 22 29 22
52 0 19 5 37 10 40 15 9 12 61 -5 75 -11 9 -12 16 -4 26 18 22 7 87 -18 99
-20 11 -18 12 27 24 28 7 50 16 50 20 0 3 -31 38 -70 76 -38 38 -70 74 -70 79
0 12 83 0 123 -18 18 -8 46 -17 62 -21 17 -3 42 -17 56 -31 l26 -24 124 10
c68 6 131 12 139 13 8 1 -41 34 -108 74 l-122 72 -45 -20 c-25 -11 -49 -18
-53 -15 -4 2 -32 7 -62 11 -116 13 -125 17 -125 55 0 33 2 35 38 38 21 2 41
10 44 17 2 8 -9 42 -26 76 -20 39 -29 70 -25 84 3 13 2 25 -4 28 -5 4 -10 104
-11 224 -4 494 -38 754 -129 983 -25 63 -45 125 -44 137 1 11 -5 24 -13 27 -8
3 -15 16 -15 30 0 14 -4 28 -10 31 -5 3 -10 15 -10 26 0 11 -9 32 -20 47 -27
37 -41 141 -32 229 9 77 1 113 -23 113 -27 0 -53 -37 -60 -87 -11 -78 -15 -82
-37 -38 -57 112 -237 398 -455 723 -134 199 -243 369 -243 377 0 8 -5 15 -11
15 -7 0 -9 9 -6 21 4 15 0 23 -14 26 -12 3 -19 14 -19 28 0 13 -10 29 -24 38
-28 19 -221 401 -262 519 -52 153 -17 304 101 427 30 32 55 63 55 68 0 14 -24
23 -65 23 -28 0 -44 -11 -110 -82z m-2567 -2999 c28 -10 31 -15 42 -82 19
-122 28 -132 29 -32 l1 89 43 -40 c87 -82 115 -102 168 -113 94 -21 106 -29
117 -71 l9 -38 -33 16 c-19 8 -34 21 -34 28 0 27 -74 38 -157 23 -43 -8 -85
-14 -93 -14 -8 0 -17 -3 -20 -6 -6 -9 -193 -49 -199 -44 -2 2 -6 36 -9 75 -5
81 9 95 27 25 6 -25 14 -45 17 -45 11 0 -7 104 -22 128 -14 21 -13 22 9 22 37
0 67 27 67 61 0 16 2 29 4 29 1 0 17 -5 34 -11z m-67 -559 c24 -11 64 -20 89
-20 31 0 64 -10 105 -32 48 -25 75 -32 138 -36 42 -3 77 -7 77 -11 0 -3 -14
-14 -30 -23 -23 -13 -30 -24 -30 -46 0 -18 -6 -32 -16 -36 -12 -5 -15 -17 -12
-50 l3 -44 -40 -7 c-22 -3 -53 -12 -67 -19 -25 -13 -33 -12 -100 21 -91 44
-234 70 -288 53 -30 -9 -60 -5 -195 23 l-160 35 47 20 c29 13 52 32 61 49 11
21 35 37 91 60 42 18 84 29 96 26 23 -6 180 36 180 49 0 11 2 11 51 -12z
m2514 -360 c682 -144 1250 -263 1263 -267 36 -9 29 -48 -14 -77 -20 -13 -42
-22 -48 -20 -7 3 -40 -9 -74 -26 -70 -35 -77 -35 -127 -15 -20 9 -58 15 -83
14 -38 -2 -57 5 -101 32 -45 28 -63 34 -115 34 -56 1 -69 5 -127 44 -60 41
-67 43 -117 38 -29 -3 -69 -15 -88 -26 -37 -22 -75 -20 -104 4 -8 7 -35 19
-60 25 -24 7 -66 23 -92 36 -54 27 -70 29 -136 12 -34 -8 -59 -25 -95 -61 -44
-45 -52 -49 -106 -54 -58 -6 -60 -5 -91 31 -35 39 -60 48 -187 67 -55 8 -86 9
-95 2 -9 -7 -49 -2 -131 16 l-117 26 -10 37 c-10 34 -14 37 -63 48 -28 6 -83
13 -122 16 -103 7 -135 14 -135 26 0 6 14 33 31 60 37 58 33 79 -27 124 l-36
28 -107 -27 c-58 -15 -120 -27 -138 -27 -29 0 -32 3 -38 41 -8 46 2 58 45 59
14 1 57 12 95 25 39 13 79 22 90 20 11 -2 578 -121 1260 -265z m-2007 160 c38
0 42 -2 42 -25 0 -30 -1 -30 -50 -5 -22 11 -46 20 -54 20 -8 0 -18 5 -22 12
-5 8 0 9 17 5 13 -4 43 -7 67 -7z m1818 -920 c18 -6 38 -25 49 -46 21 -39 65
-75 92 -76 110 -1 259 23 298 48 23 15 26 14 57 -9 46 -34 71 -38 136 -20 87
24 153 35 202 34 25 0 69 4 99 9 49 9 55 8 69 -11 13 -18 23 -20 101 -18 76 1
95 -2 163 -30 42 -17 90 -31 106 -31 17 0 37 -3 46 -6 20 -8 21 -62 1 -88 -8
-11 -15 -31 -15 -45 0 -14 -7 -39 -15 -55 -11 -20 -12 -33 -5 -40 14 -14 13
-49 -2 -64 -10 -10 -10 -15 1 -22 12 -7 12 -12 3 -23 -7 -8 -10 -21 -6 -30 12
-33 -71 -433 -135 -643 -62 -205 -163 -438 -196 -451 -8 -3 -15 -13 -15 -24 0
-10 -9 -23 -21 -29 -12 -7 -18 -18 -15 -26 3 -9 -5 -25 -19 -38 -14 -13 -25
-29 -25 -35 0 -34 -211 -311 -415 -546 -167 -191 -545 -587 -567 -593 -9 -2
-20 -12 -23 -22 -3 -9 -17 -22 -31 -29 -14 -6 -22 -16 -19 -21 3 -6 -1 -10
-10 -10 -8 0 -20 -12 -25 -26 -6 -14 -34 -54 -63 -88 -28 -34 -70 -88 -92
-119 -44 -62 -55 -69 -55 -34 0 52 -83 402 -150 632 -11 38 -20 84 -20 102 0
25 -72 271 -135 460 -2 6 15 17 38 25 38 12 42 17 49 53 4 22 7 70 7 107 1 58
-2 69 -19 78 -11 6 -24 8 -29 5 -5 -3 -12 14 -16 37 -4 24 -11 59 -17 79 -8
29 -7 41 7 62 14 21 14 32 5 64 -6 21 -16 159 -21 308 -6 148 -12 271 -14 273
-2 3 7 13 20 24 21 17 24 25 19 62 -5 30 4 88 32 203 31 134 40 160 54 156 30
-8 42 22 38 97 -1 38 -1 69 2 67 3 -1 22 -11 43 -22 20 -10 37 -22 37 -27 0
-12 137 -78 164 -78 51 0 147 148 181 279 8 34 18 97 22 141 3 44 9 80 13 80
4 0 20 -5 36 -10z m-671 -4515 c15 -56 24 -260 11 -272 -16 -16 -25 20 -30
124 -4 65 -9 143 -12 173 -6 70 9 57 31 -25z m-1425 -580 c0 -53 -3 -65 -16
-65 -10 0 -14 6 -10 15 3 8 8 37 12 65 4 27 8 50 10 50 2 0 4 -29 4 -65z"/>
<path d="M4010 12080 c-6 -11 -8 -20 -6 -20 3 0 10 9 16 20 6 11 8 20 6 20 -3
0 -10 -9 -16 -20z"/>
</g>
</svg>
