<?xml version="1.0" standalone="no"?>
<!DOCTYPE svg PUBLIC "-//W3C//DTD SVG 20010904//EN"
 "http://www.w3.org/TR/2001/REC-SVG-20010904/DTD/svg10.dtd">
<svg version="1.0" xmlns="http://www.w3.org/2000/svg"
 width="865.000000pt" height="1280.000000pt" viewBox="0 0 865.000000 1280.000000"
 preserveAspectRatio="xMidYMid meet">
<metadata>
Created by potrace 1.15, written by Peter Selinger 2001-2017
</metadata>
<g transform="translate(0.000000,1280.000000) scale(0.100000,-0.100000)"
fill="#000000" stroke="none">
<path d="M5571 12704 c52 -55 108 -122 125 -149 25 -44 29 -59 28 -125 -1 -88
-15 -124 -109 -281 -68 -111 -98 -176 -160 -344 -78 -209 -140 -305 -222 -342
l-54 -25 -227 11 c-266 12 -808 17 -837 6 -11 -4 -26 -9 -34 -11 -8 -3 -12 -6
-10 -8 2 -2 78 -43 169 -91 277 -147 344 -189 483 -307 37 -32 86 -70 108 -85
l41 -27 -24 -18 c-45 -34 -315 -166 -458 -224 -161 -64 -156 -61 -147 -71 14
-14 419 116 600 193 44 18 77 30 71 25 -5 -5 -76 -52 -159 -106 -244 -158
-360 -258 -444 -383 -51 -74 -57 -80 -110 -97 -78 -24 -231 -91 -308 -134 -73
-40 -128 -96 -271 -275 -371 -461 -684 -948 -807 -1256 -121 -302 -236 -824
-345 -1564 -119 -808 -334 -1558 -765 -2666 -360 -925 -667 -1604 -1415 -3130
-155 -316 -284 -580 -286 -586 -3 -7 46 -5 148 7 457 52 750 85 1173 134 609
71 631 71 985 -5 214 -45 326 -60 457 -60 152 0 372 24 596 63 42 8 77 12 77
10 0 -2 -22 -37 -49 -77 -78 -115 -140 -246 -149 -313 -10 -83 1 -188 23 -213
32 -35 244 -111 395 -140 218 -43 620 -51 781 -16 74 16 169 61 219 102 84 71
80 208 -10 339 -19 27 -98 129 -176 227 -100 123 -146 190 -154 219 -21 77
-22 76 150 125 85 24 218 64 295 88 77 25 194 59 260 76 140 37 343 98 358
107 16 10 0 -83 -49 -290 -59 -245 -62 -273 -36 -323 11 -21 34 -49 51 -62 73
-54 77 -54 646 -61 292 -4 606 -5 698 -2 l169 6 33 37 c58 63 68 135 35 263
-53 206 -105 256 -329 316 -138 37 -327 133 -385 196 -39 41 -60 170 -37 226
3 10 60 49 124 86 329 188 545 382 817 734 33 42 46 53 48 40 1 -10 -34 -470
-78 -1022 -44 -552 -79 -1006 -77 -1008 4 -4 210 -23 253 -23 20 0 21 8 30
136 6 74 15 138 21 142 6 4 19 123 31 277 12 149 51 657 88 1129 l66 859 60
81 c33 44 99 146 145 226 278 472 311 522 434 646 78 80 167 146 344 258 148
93 161 102 154 110 -9 9 -373 -41 -507 -69 -129 -27 -192 -31 -243 -13 -50 16
-125 68 -204 141 l-70 64 28 359 c33 429 103 1330 117 1500 5 67 14 184 20
260 6 77 15 191 20 254 5 63 14 176 20 250 6 74 15 187 20 250 5 63 14 176 20
250 6 74 15 187 20 250 5 63 23 286 40 495 17 209 32 385 34 391 2 6 38 14 80
17 90 8 133 27 142 64 6 22 1 32 -25 55 -27 25 -29 29 -14 34 54 16 105 47
114 68 25 54 -11 96 -96 112 l-39 7 46 12 c25 6 58 19 73 29 24 16 27 23 21
54 -8 49 -62 103 -105 104 l-32 1 36 32 c39 37 39 35 24 68 -15 34 -45 49
-112 55 l-59 5 6 61 c3 34 8 96 12 139 6 76 7 77 35 77 60 0 129 45 129 83 0
11 -7 29 -17 39 -15 17 -13 18 50 18 78 0 97 14 97 70 0 32 -7 46 -35 75 l-36
35 49 0 c66 0 87 22 80 85 -6 51 -24 76 -70 98 l-31 15 30 6 c41 9 75 43 71
69 -7 47 -154 117 -245 117 -24 0 -43 3 -43 8 0 23 60 763 65 792 2 19 43 103
90 185 84 148 135 262 154 346 15 64 13 206 -4 293 -30 161 -136 467 -228 664
l-25 53 -59 -93 c-132 -205 -259 -456 -308 -608 -62 -194 -44 -380 67 -700
l33 -95 -20 -244 -20 -244 -87 -27 c-94 -30 -155 -69 -205 -131 -18 -23 -83
-140 -144 -260 -61 -120 -115 -219 -119 -219 -4 0 -10 6 -13 14 -5 11 -20 11
-94 -4 -77 -16 -91 -23 -121 -55 -28 -31 -43 -38 -95 -46 -34 -5 -76 -17 -94
-26 -32 -17 -33 -17 -76 15 -50 36 -54 34 -82 -36 -16 -38 -19 -41 -34 -29
-28 25 -79 47 -108 47 -20 0 -44 -16 -86 -55 -48 -46 -63 -54 -80 -48 -12 4
-92 7 -178 7 l-155 -2 17 82 c10 44 23 155 30 246 6 91 14 199 17 240 l7 75
35 3 c66 5 205 33 360 72 221 55 309 70 417 70 71 0 94 3 91 13 -9 27 -193
107 -318 138 -68 17 -139 37 -157 44 -50 21 -269 182 -303 223 -17 20 -43 73
-57 117 -26 77 -27 89 -27 285 0 183 4 232 37 458 41 280 46 385 21 435 -52
100 -168 239 -253 301 -106 78 -199 106 -411 122 l-95 7 96 -99z m2240 -2280
l-3 -46 -41 6 c-23 4 -44 9 -47 12 -6 7 70 74 84 74 7 0 10 -17 7 -46z m-92
-730 c31 -6 32 -8 29 -52 -3 -51 -2 -50 -114 -92 -51 -19 -99 -45 -127 -70
l-44 -39 -6 59 c-4 32 -9 76 -13 98 -6 37 -4 40 30 61 53 33 171 49 245 35z
m6 -341 c-4 -38 -8 -70 -10 -71 -11 -12 -87 -13 -101 -1 -17 14 -13 61 9 87
12 15 83 51 101 52 4 0 5 -30 1 -67z m-1163 -442 c21 -8 44 -6 100 10 40 11
117 27 172 36 109 17 86 20 266 -46 30 -11 67 -22 82 -25 l27 -6 -30 -48 c-16
-26 -36 -47 -44 -47 -8 0 -80 -70 -160 -155 l-146 -155 -62 -7 c-61 -7 -117
-25 -117 -37 0 -3 -10 -19 -23 -34 l-22 -28 -47 30 c-47 30 -48 32 -48 81 0
72 -17 175 -52 320 -19 81 -26 126 -19 128 6 2 21 12 33 22 23 19 23 19 43 -5
11 -13 32 -28 47 -34z m1036 -1133 c-36 -458 -105 -1317 -152 -1908 -47 -591
-89 -1096 -93 -1123 l-8 -47 -228 227 c-125 126 -267 278 -315 338 -326 411
-559 896 -613 1274 -14 98 -8 243 16 356 20 102 98 385 105 385 3 0 14 -16 25
-36 10 -19 32 -42 48 -50 26 -14 37 -13 115 5 73 17 100 18 167 11 142 -17
243 -15 265 5 11 10 47 65 81 124 134 230 266 394 343 426 20 8 64 18 97 22
l62 6 -6 111 c-6 123 -29 224 -81 354 l-35 85 30 44 c16 23 67 74 112 111 45
38 91 79 101 91 11 11 22 21 25 21 4 0 -24 -375 -61 -832z"/>
</g>
</svg>
